<svg xmlns="http://www.w3.org/2000/svg" viewBox="0 0 572.18 150.5"><defs><style>.a{fill:#fff;}</style></defs><title>logo</title><path class="a" d="M95.52,139.13c13.53-10.1,22-26.12,22-44.84,0-21.21-10.5-39.94-28.81-51.37l-.11-.06a75.22,75.22,0,0,0-9.37-4.8,60.47,60.47,0,0,1-8.47-4.38c-3.49-2.38-9.46-9.52-12-12.57l-.43-.51c0-1.68-.07-3.37-.12-5.1h2V13.34H58.82V10.25l-2-1.71H55.53V0H54.21V8.54H53l-2,1.71v3.09H49.52V15.5h2.07v.07h-.15c0,.66,0,1.31,0,2l-.61,6c-.7,7-2.66,9.2-4.46,10.71a57.24,57.24,0,0,1-10.58,6.56c-1.16.59-2.34,1.2-3.61,1.89C28.75,44.45,1.76,59.41,1.76,93.34a56.39,56.39,0,0,0,16.75,40c-3.69,5-7.79,10.16-12.39,15.62H24.39a32.83,32.83,0,0,1,4-7.7,58.82,58.82,0,0,0,31.67,9.2,60.86,60.86,0,0,0,24.15-4.87A32.44,32.44,0,0,1,85.67,149h17.81l-.06-.07h.06C100.64,145.57,98,142.31,95.52,139.13Zm-29.8-98a68,68,0,0,0,9.76,5.1A67.93,67.93,0,0,1,83.8,50.5l.1.06c9.18,5.73,24.58,19,24.58,43.73,0,15.68-7.08,29.12-18.44,37.6q-2.4-3.3-4.58-6.48h0l0-.06h0C82.57,121.08,80,117,77.69,113h0a145.69,145.69,0,0,1-8.75-17.74H69c-.86-2-1.65-4.14-2.37-6.18h0c-6.26-18-7.43-34.76-8-54.41A46.62,46.62,0,0,0,65.72,41.16ZM57,89.08H52.71c.28-1.47.54-3,.77-4.46h2.77C56.48,86.12,56.75,87.61,57,89.08Zm-2.15,6.18h3.47A147.72,147.72,0,0,0,63.77,113H46A153.52,153.52,0,0,0,51.4,95.26ZM54,15.5h.84v.07h-.79ZM10.76,93.34C10.76,64.56,33.67,52,36.28,50.7l.11-.06c1.21-.66,2.35-1.24,3.46-1.81a68.17,68.17,0,0,0,10.91-6.64c-1.16,28.63-5.08,51.87-26.94,83.75A47.34,47.34,0,0,1,10.76,93.34ZM60.09,141.5a49.92,49.92,0,0,1-25.42-6.9A32.47,32.47,0,0,1,79.07,138,51.75,51.75,0,0,1,60.09,141.5Z" transform="translate(-1.76)"/><path class="a" d="M144.13,72V29.86h15.33a22.92,22.92,0,0,1,9.06,1.67,18.2,18.2,0,0,1,10.42,11.19,25.21,25.21,0,0,1,1.31,8.17,24.65,24.65,0,0,1-1.46,8.7,18.39,18.39,0,0,1-4.19,6.65A18.66,18.66,0,0,1,168,70.52,23.13,23.13,0,0,1,159.46,72ZM172,50.89a18,18,0,0,0-.83-5.58,12.55,12.55,0,0,0-2.44-4.4,10.69,10.69,0,0,0-3.94-2.85,13.42,13.42,0,0,0-5.32-1h-7.13v27.8h7.13a12.84,12.84,0,0,0,5.37-1.07,10.89,10.89,0,0,0,3.92-2.94,13.15,13.15,0,0,0,2.41-4.43A17.84,17.84,0,0,0,172,50.89Z" transform="translate(-1.76)"/><path class="a" d="M186.66,72V29.86h18.65a12,12,0,0,1,5.38,1.22,13.75,13.75,0,0,1,4.24,3.21,15.32,15.32,0,0,1,2.8,4.51,13.67,13.67,0,0,1,1,5.08,14.1,14.1,0,0,1-2,7.46,11.82,11.82,0,0,1-5.56,4.84L220.75,72h-9.2L202.94,57.9h-8.08V72Zm8.2-21.32h10.27a4.38,4.38,0,0,0,2.11-.53,5.24,5.24,0,0,0,1.69-1.46,6.87,6.87,0,0,0,1.13-2.17,8.3,8.3,0,0,0,.42-2.67,7.53,7.53,0,0,0-.48-2.73A7.17,7.17,0,0,0,208.73,39a5.8,5.8,0,0,0-1.84-1.42,4.78,4.78,0,0,0-2.11-.51h-9.92Z" transform="translate(-1.76)"/><path class="a" d="M244,65.09a9.44,9.44,0,0,0,4.9-1.19,9.68,9.68,0,0,0,3.21-3.09,12.85,12.85,0,0,0,1.72-4.37,25.67,25.67,0,0,0,.5-5.08V29.86h8.14v21.5a30.81,30.81,0,0,1-1,8.14,18.48,18.48,0,0,1-3.27,6.65,15.51,15.51,0,0,1-5.73,4.52A19.35,19.35,0,0,1,244,72.33a19.1,19.1,0,0,1-8.58-1.75A16.07,16.07,0,0,1,229.72,66a18.49,18.49,0,0,1-3.17-6.69,31.15,31.15,0,0,1-1-7.9V29.86h8.19v21.5a25.24,25.24,0,0,0,.51,5.14A12.65,12.65,0,0,0,236,60.87a8.94,8.94,0,0,0,8,4.22Z" transform="translate(-1.76)"/><path class="a" d="M270.71,72V29.86h17.87A12,12,0,0,1,294,31.08a13.91,13.91,0,0,1,4.25,3.21A15.29,15.29,0,0,1,301,38.8a13.69,13.69,0,0,1,1,5.08,14.73,14.73,0,0,1-.95,5.2,14.47,14.47,0,0,1-2.68,4.48,13,13,0,0,1-4.15,3.15,12.1,12.1,0,0,1-5.35,1.19h-10V72Zm8.19-21.32h9.51a4.69,4.69,0,0,0,3.77-1.84,7.62,7.62,0,0,0,1.51-5,8.36,8.36,0,0,0-.47-2.88A7.27,7.27,0,0,0,292,38.83a5,5,0,0,0-1.81-1.33,5.27,5.27,0,0,0-2.11-.45H278.9Z" transform="translate(-1.76)"/><path class="a" d="M317,29.86h7.25l16,42.17h-8.44L328,61.52H313.23L309.37,72h-8.43Zm9.45,25.9-5.82-16.57L314.6,55.76Z" transform="translate(-1.76)"/><path class="a" d="M345,72V29.86h8.2v35h21.5V72Z" transform="translate(-1.76)"/><path class="a" d="M376.85,50.59A21.27,21.27,0,0,1,378.27,43a20.72,20.72,0,0,1,4.16-6.74,21,21,0,0,1,6.65-4.81A20.69,20.69,0,0,1,398,29.63a20.09,20.09,0,0,1,10.31,2.55,16.47,16.47,0,0,1,6.5,6.65l-7.48,5.23a8.61,8.61,0,0,0-1.82-2.76,9.71,9.71,0,0,0-2.4-1.78,9.39,9.39,0,0,0-2.67-1,13.92,13.92,0,0,0-2.68-.27,10,10,0,0,0-4.87,1.13,10.7,10.7,0,0,0-3.44,2.91,11.89,11.89,0,0,0-2,4,16.14,16.14,0,0,0-.66,4.57,15,15,0,0,0,.78,4.81,12.62,12.62,0,0,0,2.23,4.1,10.54,10.54,0,0,0,3.5,2.82,10,10,0,0,0,4.6,1,11.72,11.72,0,0,0,2.7-.33,10.48,10.48,0,0,0,2.68-1,9.42,9.42,0,0,0,2.34-1.78,8.25,8.25,0,0,0,1.73-2.7l7.95,4.69a12.28,12.28,0,0,1-2.82,4.16,17.2,17.2,0,0,1-4.3,3.09,23.51,23.51,0,0,1-5.17,1.9,23.21,23.21,0,0,1-5.35.65,18.85,18.85,0,0,1-8.4-1.87,21.31,21.31,0,0,1-6.59-5,22.67,22.67,0,0,1-4.28-7A21.87,21.87,0,0,1,376.85,50.59Z" transform="translate(-1.76)"/><path class="a" d="M431,29.86h8.79L455.19,72h-10l-3.27-9.44H428.82L425.61,72h-10Zm9.32,26L435.41,41l-5.05,14.91Z" transform="translate(-1.76)"/><path class="a" d="M492.61,72V46.79l-9.15,18.36h-5.22l-9.15-18.36V72h-9.74V29.86h10.57l10.93,22,11-22h10.51V72Z" transform="translate(-1.76)"/><path class="a" d="M510.43,72V29.86h18A12.43,12.43,0,0,1,534,31.11a14.19,14.19,0,0,1,4.33,3.27A15.42,15.42,0,0,1,541.16,39a13.48,13.48,0,0,1,1,5.17,14.62,14.62,0,0,1-1,5.34A15.14,15.14,0,0,1,538.49,54a13,13,0,0,1-4.25,3.21,12.68,12.68,0,0,1-5.52,1.18h-8.55V72Zm9.74-22.09h8a3.78,3.78,0,0,0,3-1.49,6.56,6.56,0,0,0,1.24-4.33,7.54,7.54,0,0,0-.38-2.56,5.43,5.43,0,0,0-1-1.78,4.07,4.07,0,0,0-1.49-1,4.66,4.66,0,0,0-1.66-.32h-7.6Z" transform="translate(-1.76)"/><path class="a" d="M144.17,134.34V76h25.16a17.73,17.73,0,0,1,7.89,1.77,20.43,20.43,0,0,1,6.2,4.6,21.31,21.31,0,0,1,4.07,6.5A19.37,19.37,0,0,1,189,96.2a20.67,20.67,0,0,1-1.4,7.52,21,21,0,0,1-3.9,6.5,18.56,18.56,0,0,1-6.08,4.52,18.25,18.25,0,0,1-7.85,1.68H160.2v17.92Zm16-31.89h8.47a3.72,3.72,0,0,0,2.75-1.36q1.28-1.35,1.28-4.89c0-2.41-.5-4-1.48-4.93a4.48,4.48,0,0,0-3-1.31H160.2Z" transform="translate(-1.76)"/><path class="a" d="M206.23,76h14.63l20.22,58.36H224.81l-3.53-11.42H205.74l-3.45,11.42H185.93Zm12.5,36.25-5.18-18.08-5.43,18.08Z" transform="translate(-1.76)"/><path class="a" d="M245.93,134.34V76h26.8a17.7,17.7,0,0,1,7.89,1.77,20.59,20.59,0,0,1,6.21,4.6,21.7,21.7,0,0,1,4.07,6.5,19.55,19.55,0,0,1,1.47,7.35,20.9,20.9,0,0,1-2.21,9.5,19.36,19.36,0,0,1-6.17,7.19l12.33,21.45H278.24L268,116.42h-6v17.92Zm16-31.89h10.11a3.56,3.56,0,0,0,2.76-1.64,7.43,7.43,0,0,0,1.27-4.61,6.6,6.6,0,0,0-1.48-4.64,4.14,4.14,0,0,0-3-1.6H262Z" transform="translate(-1.76)"/><path class="a" d="M301.42,134.34V76h16v58.36Z" transform="translate(-1.76)"/><path class="a" d="M362.82,95.05a45.52,45.52,0,0,0-5.1-2.63,47.52,47.52,0,0,0-5-1.85,18.14,18.14,0,0,0-5.39-.86,7.47,7.47,0,0,0-3.41.66,2.3,2.3,0,0,0-1.27,2.22,2.55,2.55,0,0,0,.74,1.89,6.92,6.92,0,0,0,2.14,1.35A26,26,0,0,0,349,97c1.34.39,2.86.85,4.56,1.4a60.48,60.48,0,0,1,7.27,2.71,22.3,22.3,0,0,1,5.55,3.5,13.56,13.56,0,0,1,3.54,4.89,17.76,17.76,0,0,1,1.23,7,18.49,18.49,0,0,1-1.93,8.84,15.85,15.85,0,0,1-5.1,5.71,21.4,21.4,0,0,1-7.15,3.09,34.66,34.66,0,0,1-8,.94,45.24,45.24,0,0,1-6.57-.49,57.8,57.8,0,0,1-6.7-1.4,56,56,0,0,1-6.41-2.14,40.38,40.38,0,0,1-5.71-2.79l6.9-14.06a47.94,47.94,0,0,0,6,3.21,42.91,42.91,0,0,0,6,2.22,23.66,23.66,0,0,0,6.78,1,7,7,0,0,0,3.66-.69,2.17,2.17,0,0,0,1-1.85,2.68,2.68,0,0,0-1-2.1,9.59,9.59,0,0,0-2.84-1.52c-1.2-.44-2.59-.88-4.15-1.32s-3.22-.95-5-1.56a42.44,42.44,0,0,1-6.66-2.83,18.11,18.11,0,0,1-4.6-3.46,12.13,12.13,0,0,1-2.67-4.39,17.06,17.06,0,0,1-.87-5.67,19.55,19.55,0,0,1,1.77-8.55,17.59,17.59,0,0,1,4.81-6.17,21.57,21.57,0,0,1,7-3.74,26.4,26.4,0,0,1,8.26-1.27,31.37,31.37,0,0,1,6.24.61A51.7,51.7,0,0,1,360,77.67a55.84,55.84,0,0,1,5.3,2q2.48,1.11,4.44,2.1Z" transform="translate(-1.76)"/><path class="a" d="M383.11,132.59a40.43,40.43,0,0,1,.65-7.63,20.85,20.85,0,0,1,2.29-6.32,21.25,21.25,0,0,1,4.5-5.43,40.67,40.67,0,0,1,7.25-4.95q3.84-2.07,6.78-3.61a55.64,55.64,0,0,0,4.92-2.85,12.51,12.51,0,0,0,3-2.67,5,5,0,0,0,1-3.14,6.29,6.29,0,0,0-2.24-4.82,9.4,9.4,0,0,0-6.46-2,13.44,13.44,0,0,0-4.12.61,15.63,15.63,0,0,0-3.51,1.64,20.19,20.19,0,0,0-3,2.29,23,23,0,0,0-2.48,2.67l-8.05-9.27a21.07,21.07,0,0,1,3.46-2.85,32.88,32.88,0,0,1,5.29-2.9,38.59,38.59,0,0,1,6.74-2.25,33.84,33.84,0,0,1,7.9-.89,28.54,28.54,0,0,1,8.52,1.17,18.54,18.54,0,0,1,6.32,3.28,14.18,14.18,0,0,1,3.93,5,15.26,15.26,0,0,1,1.36,6.41A13.27,13.27,0,0,1,426,99.93a17.41,17.41,0,0,1-3.09,4.49,23.38,23.38,0,0,1-4.07,3.41q-2.21,1.45-4.26,2.58l-3.84,2.15q-2.15,1.22-4.25,2.67a44.19,44.19,0,0,0-3.89,3,14.12,14.12,0,0,0-2.71,3h28.36v11.33Z" transform="translate(-1.76)"/><path class="a" d="M479.67,105.17a34.28,34.28,0,0,1-1.82,11.37,27.88,27.88,0,0,1-5.06,9,22.85,22.85,0,0,1-7.67,5.9,23.06,23.06,0,0,1-19.23,0,23,23,0,0,1-7.63-5.9,27.86,27.86,0,0,1-5.05-9,36.24,36.24,0,0,1,0-22.74,27.91,27.91,0,0,1,5.05-9,23.39,23.39,0,0,1,7.63-5.94,22.57,22.57,0,0,1,19.23,0,23.23,23.23,0,0,1,7.67,5.94,27.93,27.93,0,0,1,5.06,9A34.23,34.23,0,0,1,479.67,105.17Zm-12.63,0a26.52,26.52,0,0,0-.84-6.88,17.49,17.49,0,0,0-2.39-5.38,11.44,11.44,0,0,0-3.65-3.47,9.09,9.09,0,0,0-4.63-1.21,9.28,9.28,0,0,0-4.73,1.21,11.44,11.44,0,0,0-3.65,3.47,17.24,17.24,0,0,0-2.38,5.38,26.09,26.09,0,0,0-.85,6.88,25.6,25.6,0,0,0,.85,6.83,17.26,17.26,0,0,0,2.38,5.33,11.33,11.33,0,0,0,3.65,3.47,9.28,9.28,0,0,0,4.73,1.21,9.09,9.09,0,0,0,4.63-1.21,11.33,11.33,0,0,0,3.65-3.47A17.51,17.51,0,0,0,466.2,112,26,26,0,0,0,467,105.17Z" transform="translate(-1.76)"/><path class="a" d="M524.55,121.26v11.33h-38V121.26h13.29V92.91a10.09,10.09,0,0,1-2.67,2.29,37.23,37.23,0,0,1-4,2.2,27,27,0,0,1-4.44,1.68,15,15,0,0,1-4.07.66V88A10.54,10.54,0,0,0,488.8,87a34.07,34.07,0,0,0,4.78-2.57,40,40,0,0,0,4.07-3,10.09,10.09,0,0,0,2.2-2.29h12.82v42.11Z" transform="translate(-1.76)"/><path class="a" d="M525.18,102.27a22,22,0,0,1,1.87-9.08,23,23,0,0,1,12.78-12.26,25.48,25.48,0,0,1,9.59-1.78,24.32,24.32,0,0,1,10.15,2.06,21,21,0,0,1,7.73,6,28.28,28.28,0,0,1,4.91,9.59,44.15,44.15,0,0,1,1.73,12.87,64,64,0,0,1-1.82,16,36.23,36.23,0,0,1-5.15,11.7,22.28,22.28,0,0,1-8.1,7.16A23.17,23.17,0,0,1,548.2,147a25.33,25.33,0,0,1-11.6-2.71,25,25,0,0,1-9-7.77l7.21-7.86a15.77,15.77,0,0,0,13.57,7.48,11.79,11.79,0,0,0,10-5q3.69-5,3.88-14a13.46,13.46,0,0,1-5.52,5.33,17.48,17.48,0,0,1-8.42,2,24.49,24.49,0,0,1-9.17-1.69,22.09,22.09,0,0,1-7.3-4.68A21.85,21.85,0,0,1,527,111,21.56,21.56,0,0,1,525.18,102.27Zm24.24-12.54a11.34,11.34,0,0,0-4.72,1,12.39,12.39,0,0,0-3.89,2.71,13.36,13.36,0,0,0-2.67,4,12.18,12.18,0,0,0-1,4.82,11.5,11.5,0,0,0,1,4.72,13.52,13.52,0,0,0,2.62,3.89,11.66,11.66,0,0,0,3.89,2.62,12.7,12.7,0,0,0,9.54,0,11.66,11.66,0,0,0,3.89-2.62A13.52,13.52,0,0,0,560.7,107a11.5,11.5,0,0,0,1-4.72,12.18,12.18,0,0,0-1-4.82,12.66,12.66,0,0,0-2.67-4,13.78,13.78,0,0,0-3.88-2.72A11.11,11.11,0,0,0,549.42,89.73Z" transform="translate(-1.76)"/></svg>